<svg width="10" height="10" viewBox="0 0 10 10" fill="none" xmlns="http://www.w3.org/2000/svg">
<path d="M4.82734 2.19463C5.5915 2.19463 6.30984 2.53255 6.83734 3.0613V3.06296C6.83734 2.80921 7.00817 2.61796 7.24525 2.61796H7.30567C7.67692 2.61796 7.75275 2.9688 7.75275 3.08005L7.75484 7.02796C7.72859 7.28671 8.0215 7.42005 8.18359 7.25421C8.81734 6.60255 9.57609 3.90505 7.78942 2.34171C6.12442 0.884629 3.89067 1.12463 2.70234 1.9438C1.43942 2.81505 0.631086 4.74296 1.4165 6.5538C2.27234 8.5288 4.72109 9.11713 6.1765 8.53046C6.91359 8.23254 7.254 9.2288 6.48859 9.55421C5.33192 10.0475 2.11275 9.99755 0.609419 7.39255C-0.406831 5.6338 -0.352665 2.5388 2.34192 0.935463C4.40317 -0.290787 7.12109 0.048796 8.75942 1.76005C10.4723 3.54921 10.3728 6.89921 8.7015 8.20213C7.94484 8.7938 6.81984 8.21755 6.82734 7.35588L6.81942 7.07338C6.29234 7.59671 5.59109 7.90171 4.82692 7.90171C3.3165 7.90171 1.98817 6.57296 1.98817 5.06338C1.98817 3.5388 3.31692 2.19463 4.82734 2.19463ZM6.72775 4.95421C6.67067 3.8488 5.85025 3.1838 4.85942 3.1838H4.82192C3.67817 3.1838 3.04359 4.08338 3.04359 5.10463C3.04359 6.24921 3.81109 6.97171 4.81692 6.97171C5.939 6.97171 6.67692 6.14963 6.73025 5.17755L6.72775 4.95421Z" fill="white"/>
</svg>
