<svg width="10" height="11" viewBox="0 0 10 11" fill="none" xmlns="http://www.w3.org/2000/svg">
<path d="M2 5.12417C2.77778 6.67686 4.11111 7.95228 5.66667 8.78408L6.88889 7.56411C7.05556 7.39775 7.27778 7.3423 7.44444 7.4532C8.05556 7.67501 8.72222 7.78592 9.44444 7.78592C9.77778 7.78592 10 8.00773 10 8.34045V10.2259C10 10.5586 9.77778 10.7804 9.44444 10.7804C4.22222 10.7804 0 6.56595 0 1.35336C0 1.02064 0.277778 0.798828 0.555556 0.798828H2.5C2.83333 0.798828 3.05556 1.02064 3.05556 1.35336C3.05556 2.0188 3.16667 2.68423 3.38889 3.34967C3.44444 3.51603 3.38889 3.73784 3.27778 3.9042L2 5.12417ZM6.11111 0.798828C5.77778 0.798828 5.55556 1.02064 5.55556 1.35336C5.55556 1.68608 5.77778 1.90789 6.11111 1.90789C6.44444 1.90789 6.66667 1.68608 6.66667 1.35336C6.66667 1.02064 6.44444 0.798828 6.11111 0.798828ZM7.77778 0.798828C7.44444 0.798828 7.22222 1.02064 7.22222 1.35336C7.22222 1.68608 7.44444 1.90789 7.77778 1.90789C8.11111 1.90789 8.33333 1.68608 8.33333 1.35336C8.33333 1.02064 8.11111 0.798828 7.77778 0.798828ZM9.44444 0.798828C9.11111 0.798828 8.88889 1.02064 8.88889 1.35336C8.88889 1.68608 9.11111 1.90789 9.44444 1.90789C9.77778 1.90789 10 1.68608 10 1.35336C10 1.02064 9.77778 0.798828 9.44444 0.798828ZM6.11111 2.46242C5.77778 2.46242 5.55556 2.68423 5.55556 3.01695C5.55556 3.34967 5.77778 3.57148 6.11111 3.57148C6.44444 3.57148 6.66667 3.34967 6.66667 3.01695C6.66667 2.68423 6.44444 2.46242 6.11111 2.46242ZM7.77778 2.46242C7.44444 2.46242 7.22222 2.68423 7.22222 3.01695C7.22222 3.34967 7.44444 3.57148 7.77778 3.57148C8.11111 3.57148 8.33333 3.34967 8.33333 3.01695C8.33333 2.68423 8.11111 2.46242 7.77778 2.46242ZM9.44444 2.46242C9.11111 2.46242 8.88889 2.68423 8.88889 3.01695C8.88889 3.34967 9.11111 3.57148 9.44444 3.57148C9.77778 3.57148 10 3.34967 10 3.01695C10 2.68423 9.77778 2.46242 9.44444 2.46242ZM6.11111 4.12601C5.77778 4.12601 5.55556 4.34783 5.55556 4.68055C5.55556 5.01326 5.77778 5.23508 6.11111 5.23508C6.44444 5.23508 6.66667 5.01326 6.66667 4.68055C6.66667 4.34783 6.44444 4.12601 6.11111 4.12601ZM7.77778 4.12601C7.44444 4.12601 7.22222 4.34783 7.22222 4.68055C7.22222 5.01326 7.44444 5.23508 7.77778 5.23508C8.11111 5.23508 8.33333 5.01326 8.33333 4.68055C8.33333 4.34783 8.11111 4.12601 7.77778 4.12601ZM9.44444 4.12601C9.11111 4.12601 8.88889 4.34783 8.88889 4.68055C8.88889 5.01326 9.11111 5.23508 9.44444 5.23508C9.77778 5.23508 10 5.01326 10 4.68055C10 4.34783 9.77778 4.12601 9.44444 4.12601Z" fill="white"/>
</svg>
