<svg width="16" height="17" viewBox="0 0 16 17" fill="none" xmlns="http://www.w3.org/2000/svg">
<path d="M11.7078 10.3653C12.3067 9.38361 12.6234 8.25637 12.6233 7.107C12.6233 3.62508 9.8007 0.805588 6.31165 0.804199C2.82574 0.805241 0 3.62508 0 7.1063C0 10.5844 2.82609 13.4039 6.31374 13.4039C7.51026 13.4039 8.62504 13.0664 9.57774 12.4898L13.871 16.7747L16 14.6486L11.7078 10.3653ZM6.31304 11.0045C4.15583 10.9993 2.41183 9.2592 2.408 7.11047C2.40947 6.07708 2.82135 5.08643 3.55334 4.35565C4.28534 3.62487 5.27775 3.21358 6.31304 3.21193C8.46922 3.21748 10.2139 4.95757 10.2184 7.11047C10.2139 9.25677 8.46852 10.9993 6.31304 11.0045Z" fill="white"/>
</svg>
