<svg width="29" height="17" viewBox="0 0 29 17" fill="none" xmlns="http://www.w3.org/2000/svg">
<path d="M26.2813 1.67194C26.0433 1.54471 25.7229 1.43162 25.3201 1.33266C24.9174 1.2337 24.304 1.13121 23.4802 1.02518C22.6563 0.919155 21.48 0.834333 19.9513 0.770717C18.4226 0.707101 16.6055 0.675293 14.5001 0.675293C8.12884 0.675293 4.32992 0.965099 3.10328 1.54471C1.65694 2.20915 0.787303 4.16711 0.494374 7.4186C0.457758 7.8427 0.430295 8.2456 0.411987 8.6273C0.430295 9.10796 0.471489 9.61335 0.535567 10.1435C0.599645 10.6736 0.714071 11.3239 0.878843 12.0944C1.04362 12.8648 1.31824 13.5575 1.70271 14.1725C2.08718 14.7875 2.54488 15.2222 3.07581 15.4766C4.30245 16.0421 8.11053 16.3248 14.5001 16.3248C21.1642 16.3248 25.0913 15.9997 26.2813 15.3494C26.7573 15.0808 27.1601 14.6567 27.4896 14.0771C27.8192 13.4975 28.0572 12.8472 28.2037 12.1262C28.3501 11.4052 28.4462 10.7726 28.492 10.2283C28.5378 9.68404 28.5698 9.1433 28.5881 8.6061C28.5698 8.12544 28.5378 7.62005 28.492 7.08991C28.4462 6.55978 28.3547 5.90595 28.2174 5.12842C28.0801 4.35089 27.8466 3.64758 27.5171 3.01848C27.1876 2.38939 26.7756 1.94055 26.2813 1.67194ZM25.2377 14.2467C25.073 14.3315 24.7617 14.4199 24.304 14.5118C23.8463 14.6037 22.7524 14.7026 21.0223 14.8087C19.2922 14.9147 17.1181 14.9677 14.5001 14.9677C11.9552 14.9677 9.84065 14.9182 8.1563 14.8193C6.47196 14.7203 5.40094 14.632 4.94324 14.5542C4.48554 14.4764 4.16514 14.3952 3.98206 14.3103C3.52436 14.0983 3.11701 13.4763 2.76 12.4443C2.40299 11.4123 2.20618 10.14 2.16956 8.6273C2.20618 7.10052 2.40757 5.78225 2.77373 4.6725C3.13989 3.56276 3.55182 2.90186 4.00952 2.6898C4.1743 2.61912 4.48554 2.54136 4.94324 2.45654C5.40094 2.37172 6.47196 2.27983 8.1563 2.18087C9.84065 2.08191 11.9552 2.03244 14.5001 2.03244C17.1181 2.03244 19.2922 2.08545 21.0223 2.19148C22.7524 2.2975 23.8463 2.39646 24.304 2.48835C24.7617 2.58024 25.073 2.67566 25.2377 2.77462C25.4391 2.87358 25.6314 3.08564 25.8144 3.41078C25.9975 3.73593 26.1623 4.14237 26.3088 4.63009C26.4552 5.11782 26.5742 5.70803 26.6658 6.40074C26.7573 7.09345 26.8122 7.82857 26.8305 8.6061C26.8122 10.1329 26.6475 11.3946 26.3362 12.3913C26.025 13.3879 25.6588 14.0064 25.2377 14.2467ZM20.2122 7.96994L12.3031 4.21659C12.0102 4.07522 11.7172 4.07168 11.4243 4.20598C11.1314 4.34029 10.9849 4.54174 10.9849 4.81034V12.2958C10.9849 12.5644 11.1314 12.7623 11.4243 12.8896C11.5708 12.9461 11.7172 12.9744 11.8637 12.9744C11.9369 12.9744 12.0147 12.9673 12.0971 12.9532C12.1795 12.9391 12.2482 12.9108 12.3031 12.8684L20.2122 9.13623C20.5051 8.99486 20.6516 8.79694 20.6516 8.54248C20.6333 8.28802 20.4868 8.09717 20.2122 7.96994ZM12.7425 11.0871V5.99784L18.0701 8.54248L12.7425 11.0871Z" fill="white"/>
</svg>
